<mxfile host="Electron" agent="Mozilla/5.0 (X11; Linux x86_64) AppleWebKit/537.36 (KHTML, like Gecko) draw.io/28.1.2 Chrome/138.0.7204.243 Electron/37.4.0 Safari/537.36" version="28.1.2">
  <diagram name="Page-1" id="bK-8RyBisptcYDfP-3sL">
    <mxGraphModel dx="1188" dy="701" grid="1" gridSize="10" guides="1" tooltips="1" connect="1" arrows="1" fold="1" page="1" pageScale="1" pageWidth="1169" pageHeight="827" math="0" shadow="0">
      <root>
        <mxCell id="0" />
        <mxCell id="1" parent="0" />
        <mxCell id="WXJnhD6GPRWwHJao-meW-1" value="Medicamento" style="whiteSpace=wrap;html=1;align=center;fillColor=#EDE0F4;strokeColor=#9673a6;" parent="1" vertex="1">
          <mxGeometry x="210" y="370" width="100" height="38" as="geometry" />
        </mxCell>
        <mxCell id="WXJnhD6GPRWwHJao-meW-2" value="id" style="ellipse;whiteSpace=wrap;html=1;align=center;fillColor=#C8BDCD;strokeColor=#9673a6;" parent="1" vertex="1">
          <mxGeometry x="30" y="195" width="100" height="38" as="geometry" />
        </mxCell>
        <mxCell id="WXJnhD6GPRWwHJao-meW-3" value="nombre" style="ellipse;whiteSpace=wrap;html=1;align=center;fillColor=#EDE0F4;strokeColor=#9673a6;" parent="1" vertex="1">
          <mxGeometry x="30" y="245" width="100" height="38" as="geometry" />
        </mxCell>
        <mxCell id="WXJnhD6GPRWwHJao-meW-4" value="familia" style="ellipse;whiteSpace=wrap;html=1;align=center;fillColor=#EDE0F4;strokeColor=#9673a6;" parent="1" vertex="1">
          <mxGeometry x="30" y="545" width="100" height="38" as="geometry" />
        </mxCell>
        <mxCell id="WXJnhD6GPRWwHJao-meW-5" value="requiere_receta" style="ellipse;whiteSpace=wrap;html=1;align=center;fillColor=#EDE0F4;strokeColor=#9673a6;" parent="1" vertex="1">
          <mxGeometry x="30" y="495" width="100" height="38" as="geometry" />
        </mxCell>
        <mxCell id="WXJnhD6GPRWwHJao-meW-6" value="precio" style="ellipse;whiteSpace=wrap;html=1;align=center;fillColor=#EDE0F4;strokeColor=#9673a6;" parent="1" vertex="1">
          <mxGeometry x="30" y="445" width="100" height="38" as="geometry" />
        </mxCell>
        <mxCell id="WXJnhD6GPRWwHJao-meW-7" value="unidades_vendidas" style="ellipse;whiteSpace=wrap;html=1;align=center;fillColor=#EDE0F4;strokeColor=#9673a6;dashed=1;dashPattern=8 8;" parent="1" vertex="1">
          <mxGeometry x="25" y="395" width="110" height="38" as="geometry" />
        </mxCell>
        <mxCell id="WXJnhD6GPRWwHJao-meW-8" value="unidades_stock" style="ellipse;whiteSpace=wrap;html=1;align=center;dashed=1;dashPattern=8 8;fillColor=#EDE0F4;strokeColor=#9673a6;" parent="1" vertex="1">
          <mxGeometry x="30" y="345" width="100" height="38" as="geometry" />
        </mxCell>
        <mxCell id="WXJnhD6GPRWwHJao-meW-9" value="tipo" style="ellipse;whiteSpace=wrap;html=1;align=center;fillColor=#EDE0F4;strokeColor=#9673a6;" parent="1" vertex="1">
          <mxGeometry x="30" y="295" width="100" height="38" as="geometry" />
        </mxCell>
        <mxCell id="WXJnhD6GPRWwHJao-meW-11" value="" style="endArrow=none;html=1;rounded=0;entryX=0;entryY=0.5;entryDx=0;entryDy=0;exitX=1;exitY=0.5;exitDx=0;exitDy=0;labelBorderColor=none;strokeColor=#9673A6;" parent="1" source="WXJnhD6GPRWwHJao-meW-2" target="WXJnhD6GPRWwHJao-meW-1" edge="1">
          <mxGeometry relative="1" as="geometry">
            <mxPoint x="160" y="230" as="sourcePoint" />
            <mxPoint x="320" y="230" as="targetPoint" />
          </mxGeometry>
        </mxCell>
        <mxCell id="WXJnhD6GPRWwHJao-meW-12" value="" style="endArrow=none;html=1;rounded=0;entryX=0;entryY=0.5;entryDx=0;entryDy=0;exitX=1;exitY=0.5;exitDx=0;exitDy=0;labelBorderColor=none;strokeColor=#9673A6;" parent="1" source="WXJnhD6GPRWwHJao-meW-3" target="WXJnhD6GPRWwHJao-meW-1" edge="1">
          <mxGeometry relative="1" as="geometry">
            <mxPoint x="150" y="260" as="sourcePoint" />
            <mxPoint x="200" y="420" as="targetPoint" />
          </mxGeometry>
        </mxCell>
        <mxCell id="WXJnhD6GPRWwHJao-meW-13" value="" style="endArrow=none;html=1;rounded=0;entryX=1;entryY=0.5;entryDx=0;entryDy=0;exitX=0;exitY=0.5;exitDx=0;exitDy=0;labelBorderColor=none;strokeColor=#9673A6;" parent="1" source="WXJnhD6GPRWwHJao-meW-1" target="WXJnhD6GPRWwHJao-meW-9" edge="1">
          <mxGeometry relative="1" as="geometry">
            <mxPoint x="190" y="510" as="sourcePoint" />
            <mxPoint x="270" y="660" as="targetPoint" />
          </mxGeometry>
        </mxCell>
        <mxCell id="WXJnhD6GPRWwHJao-meW-14" value="" style="endArrow=none;html=1;rounded=0;entryX=1;entryY=0.5;entryDx=0;entryDy=0;exitX=0;exitY=0.5;exitDx=0;exitDy=0;labelBorderColor=none;strokeColor=#9673A6;" parent="1" source="WXJnhD6GPRWwHJao-meW-1" target="WXJnhD6GPRWwHJao-meW-8" edge="1">
          <mxGeometry relative="1" as="geometry">
            <mxPoint x="190" y="520" as="sourcePoint" />
            <mxPoint x="270" y="670" as="targetPoint" />
          </mxGeometry>
        </mxCell>
        <mxCell id="WXJnhD6GPRWwHJao-meW-15" value="" style="endArrow=none;html=1;rounded=0;entryX=1;entryY=0.5;entryDx=0;entryDy=0;exitX=0;exitY=0.5;exitDx=0;exitDy=0;labelBorderColor=none;strokeColor=#9673A6;" parent="1" source="WXJnhD6GPRWwHJao-meW-1" target="WXJnhD6GPRWwHJao-meW-7" edge="1">
          <mxGeometry relative="1" as="geometry">
            <mxPoint x="190" y="530" as="sourcePoint" />
            <mxPoint x="270" y="680" as="targetPoint" />
          </mxGeometry>
        </mxCell>
        <mxCell id="WXJnhD6GPRWwHJao-meW-16" value="" style="endArrow=none;html=1;rounded=0;entryX=1;entryY=0.5;entryDx=0;entryDy=0;exitX=0;exitY=0.5;exitDx=0;exitDy=0;labelBorderColor=none;strokeColor=#9673A6;" parent="1" source="WXJnhD6GPRWwHJao-meW-1" target="WXJnhD6GPRWwHJao-meW-6" edge="1">
          <mxGeometry relative="1" as="geometry">
            <mxPoint x="190" y="540" as="sourcePoint" />
            <mxPoint x="270" y="690" as="targetPoint" />
          </mxGeometry>
        </mxCell>
        <mxCell id="WXJnhD6GPRWwHJao-meW-17" value="" style="endArrow=none;html=1;rounded=0;entryX=1;entryY=0.5;entryDx=0;entryDy=0;exitX=0;exitY=0.5;exitDx=0;exitDy=0;labelBorderColor=none;strokeColor=#9673A6;" parent="1" source="WXJnhD6GPRWwHJao-meW-1" target="WXJnhD6GPRWwHJao-meW-5" edge="1">
          <mxGeometry relative="1" as="geometry">
            <mxPoint x="190" y="550" as="sourcePoint" />
            <mxPoint x="270" y="700" as="targetPoint" />
          </mxGeometry>
        </mxCell>
        <mxCell id="WXJnhD6GPRWwHJao-meW-18" value="" style="endArrow=none;html=1;rounded=0;entryX=1;entryY=0.5;entryDx=0;entryDy=0;exitX=0;exitY=0.5;exitDx=0;exitDy=0;labelBorderColor=none;strokeColor=#9673A6;" parent="1" source="WXJnhD6GPRWwHJao-meW-1" target="WXJnhD6GPRWwHJao-meW-4" edge="1">
          <mxGeometry relative="1" as="geometry">
            <mxPoint x="190" y="560" as="sourcePoint" />
            <mxPoint x="270" y="710" as="targetPoint" />
          </mxGeometry>
        </mxCell>
        <mxCell id="WXJnhD6GPRWwHJao-meW-20" value="Laboratorio" style="whiteSpace=wrap;html=1;align=center;fillColor=#EDE0F4;strokeColor=#9673a6;" parent="1" vertex="1">
          <mxGeometry x="500" y="370" width="100" height="38" as="geometry" />
        </mxCell>
        <mxCell id="WXJnhD6GPRWwHJao-meW-23" value="" style="endArrow=none;html=1;rounded=0;exitX=1;exitY=0.5;exitDx=0;exitDy=0;entryX=0;entryY=0.5;entryDx=0;entryDy=0;labelBorderColor=none;strokeColor=#9673A6;" parent="1" source="WXJnhD6GPRWwHJao-meW-26" target="WXJnhD6GPRWwHJao-meW-20" edge="1">
          <mxGeometry relative="1" as="geometry">
            <mxPoint x="340" y="430" as="sourcePoint" />
            <mxPoint x="500" y="430" as="targetPoint" />
          </mxGeometry>
        </mxCell>
        <mxCell id="WXJnhD6GPRWwHJao-meW-25" value="1" style="resizable=0;html=1;whiteSpace=wrap;align=right;verticalAlign=bottom;" parent="WXJnhD6GPRWwHJao-meW-23" connectable="0" vertex="1">
          <mxGeometry x="1" relative="1" as="geometry">
            <mxPoint x="-3" as="offset" />
          </mxGeometry>
        </mxCell>
        <mxCell id="WXJnhD6GPRWwHJao-meW-27" value="" style="endArrow=none;html=1;rounded=0;exitX=1;exitY=0.5;exitDx=0;exitDy=0;entryX=0;entryY=0.5;entryDx=0;entryDy=0;labelBorderColor=none;strokeColor=#9673A6;" parent="1" source="WXJnhD6GPRWwHJao-meW-1" target="WXJnhD6GPRWwHJao-meW-26" edge="1">
          <mxGeometry relative="1" as="geometry">
            <mxPoint x="310" y="390" as="sourcePoint" />
            <mxPoint x="500" y="390" as="targetPoint" />
          </mxGeometry>
        </mxCell>
        <mxCell id="WXJnhD6GPRWwHJao-meW-28" value="(1,N)" style="resizable=0;html=1;whiteSpace=wrap;align=left;verticalAlign=bottom;" parent="WXJnhD6GPRWwHJao-meW-27" connectable="0" vertex="1">
          <mxGeometry x="-1" relative="1" as="geometry" />
        </mxCell>
        <mxCell id="WXJnhD6GPRWwHJao-meW-26" value="vende" style="shape=rhombus;perimeter=rhombusPerimeter;whiteSpace=wrap;html=1;align=center;fillColor=#fff2cc;strokeColor=#d6b656;" parent="1" vertex="1">
          <mxGeometry x="350" y="360" width="120" height="58" as="geometry" />
        </mxCell>
        <mxCell id="WXJnhD6GPRWwHJao-meW-30" value="Farmacia" style="whiteSpace=wrap;html=1;align=center;fillColor=#EDE0F4;strokeColor=#9673a6;" parent="1" vertex="1">
          <mxGeometry x="210" y="190" width="100" height="38" as="geometry" />
        </mxCell>
        <mxCell id="WXJnhD6GPRWwHJao-meW-31" value="" style="endArrow=none;html=1;rounded=0;exitX=0.5;exitY=1;exitDx=0;exitDy=0;entryX=0.5;entryY=0;entryDx=0;entryDy=0;labelBorderColor=none;strokeColor=#9673A6;" parent="1" source="WXJnhD6GPRWwHJao-meW-34" target="WXJnhD6GPRWwHJao-meW-1" edge="1">
          <mxGeometry relative="1" as="geometry">
            <mxPoint x="240" y="380" as="sourcePoint" />
            <mxPoint x="400" y="380" as="targetPoint" />
          </mxGeometry>
        </mxCell>
        <mxCell id="WXJnhD6GPRWwHJao-meW-33" value="(0,N)" style="resizable=0;html=1;whiteSpace=wrap;align=right;verticalAlign=bottom;" parent="WXJnhD6GPRWwHJao-meW-31" connectable="0" vertex="1">
          <mxGeometry x="1" relative="1" as="geometry">
            <mxPoint x="-1" as="offset" />
          </mxGeometry>
        </mxCell>
        <mxCell id="WXJnhD6GPRWwHJao-meW-35" value="" style="endArrow=none;html=1;rounded=0;exitX=0.5;exitY=1;exitDx=0;exitDy=0;entryX=0.5;entryY=0;entryDx=0;entryDy=0;labelBorderColor=none;strokeColor=#9673A6;" parent="1" source="WXJnhD6GPRWwHJao-meW-30" target="WXJnhD6GPRWwHJao-meW-34" edge="1">
          <mxGeometry relative="1" as="geometry">
            <mxPoint x="260" y="190" as="sourcePoint" />
            <mxPoint x="260" y="370" as="targetPoint" />
          </mxGeometry>
        </mxCell>
        <mxCell id="WXJnhD6GPRWwHJao-meW-36" value="1" style="resizable=0;html=1;whiteSpace=wrap;align=left;verticalAlign=bottom;" parent="WXJnhD6GPRWwHJao-meW-35" connectable="0" vertex="1">
          <mxGeometry x="-1" relative="1" as="geometry">
            <mxPoint x="-14" y="20" as="offset" />
          </mxGeometry>
        </mxCell>
        <mxCell id="WXJnhD6GPRWwHJao-meW-34" value="fabrica" style="shape=rhombus;perimeter=rhombusPerimeter;whiteSpace=wrap;html=1;align=center;fillColor=#fff2cc;strokeColor=#d6b656;" parent="1" vertex="1">
          <mxGeometry x="200" y="270" width="120" height="58" as="geometry" />
        </mxCell>
        <mxCell id="WXJnhD6GPRWwHJao-meW-38" value="id" style="ellipse;whiteSpace=wrap;html=1;align=center;fillColor=#C8BDCD;strokeColor=#9673a6;" parent="1" vertex="1">
          <mxGeometry x="155" y="120" width="100" height="38" as="geometry" />
        </mxCell>
        <mxCell id="WXJnhD6GPRWwHJao-meW-39" value="" style="endArrow=none;html=1;rounded=0;exitX=0.5;exitY=1;exitDx=0;exitDy=0;entryX=0.5;entryY=0;entryDx=0;entryDy=0;labelBorderColor=none;strokeColor=#9673A6;" parent="1" source="WXJnhD6GPRWwHJao-meW-38" target="WXJnhD6GPRWwHJao-meW-30" edge="1">
          <mxGeometry relative="1" as="geometry">
            <mxPoint x="150" y="260" as="sourcePoint" />
            <mxPoint x="250" y="170" as="targetPoint" />
          </mxGeometry>
        </mxCell>
        <mxCell id="WXJnhD6GPRWwHJao-meW-41" value="dirección" style="ellipse;shape=doubleEllipse;margin=0;whiteSpace=wrap;html=1;align=center;fillColor=#EDE0F4;strokeColor=#9673a6;" parent="1" vertex="1">
          <mxGeometry x="265" y="120" width="100" height="38" as="geometry" />
        </mxCell>
        <mxCell id="WXJnhD6GPRWwHJao-meW-44" value="nombre" style="ellipse;whiteSpace=wrap;html=1;align=center;fillColor=#EDE0F4;strokeColor=#9673a6;" parent="1" vertex="1">
          <mxGeometry x="400" y="70" width="100" height="38" as="geometry" />
        </mxCell>
        <mxCell id="WXJnhD6GPRWwHJao-meW-45" value="numero" style="ellipse;whiteSpace=wrap;html=1;align=center;fillColor=#EDE0F4;strokeColor=#9673a6;" parent="1" vertex="1">
          <mxGeometry x="400" y="120" width="100" height="38" as="geometry" />
        </mxCell>
        <mxCell id="WXJnhD6GPRWwHJao-meW-46" value="cod_postal" style="ellipse;whiteSpace=wrap;html=1;align=center;fillColor=#EDE0F4;strokeColor=#9673a6;" parent="1" vertex="1">
          <mxGeometry x="400" y="170" width="100" height="38" as="geometry" />
        </mxCell>
        <mxCell id="WXJnhD6GPRWwHJao-meW-48" value="" style="endArrow=none;html=1;rounded=0;entryX=1;entryY=0.5;entryDx=0;entryDy=0;exitX=0;exitY=0.5;exitDx=0;exitDy=0;labelBorderColor=none;strokeColor=#9673A6;" parent="1" source="WXJnhD6GPRWwHJao-meW-44" target="WXJnhD6GPRWwHJao-meW-41" edge="1">
          <mxGeometry relative="1" as="geometry">
            <mxPoint x="400" y="155" as="sourcePoint" />
            <mxPoint x="340" y="285" as="targetPoint" />
          </mxGeometry>
        </mxCell>
        <mxCell id="WXJnhD6GPRWwHJao-meW-49" value="" style="endArrow=none;html=1;rounded=0;entryX=1;entryY=0.5;entryDx=0;entryDy=0;exitX=0;exitY=0.5;exitDx=0;exitDy=0;labelBorderColor=none;strokeColor=#9673A6;" parent="1" source="WXJnhD6GPRWwHJao-meW-45" target="WXJnhD6GPRWwHJao-meW-41" edge="1">
          <mxGeometry relative="1" as="geometry">
            <mxPoint x="470" y="140" as="sourcePoint" />
            <mxPoint x="410" y="270" as="targetPoint" />
          </mxGeometry>
        </mxCell>
        <mxCell id="WXJnhD6GPRWwHJao-meW-50" value="" style="endArrow=none;html=1;rounded=0;entryX=1;entryY=0.5;entryDx=0;entryDy=0;exitX=0;exitY=0.5;exitDx=0;exitDy=0;labelBorderColor=none;strokeColor=#9673A6;" parent="1" source="WXJnhD6GPRWwHJao-meW-46" target="WXJnhD6GPRWwHJao-meW-41" edge="1">
          <mxGeometry relative="1" as="geometry">
            <mxPoint x="480" y="140" as="sourcePoint" />
            <mxPoint x="420" y="270" as="targetPoint" />
          </mxGeometry>
        </mxCell>
        <mxCell id="WXJnhD6GPRWwHJao-meW-51" value="" style="endArrow=none;html=1;rounded=0;entryX=0.5;entryY=1;entryDx=0;entryDy=0;exitX=0.5;exitY=0;exitDx=0;exitDy=0;labelBorderColor=none;strokeColor=#9673A6;" parent="1" source="WXJnhD6GPRWwHJao-meW-30" target="WXJnhD6GPRWwHJao-meW-41" edge="1">
          <mxGeometry relative="1" as="geometry">
            <mxPoint x="370" y="290" as="sourcePoint" />
            <mxPoint x="340" y="210" as="targetPoint" />
          </mxGeometry>
        </mxCell>
        <mxCell id="WXJnhD6GPRWwHJao-meW-71" value="Cliente" style="whiteSpace=wrap;html=1;align=center;fillColor=#EDE0F4;strokeColor=#9673a6;" parent="1" vertex="1">
          <mxGeometry x="210" y="645" width="100" height="38" as="geometry" />
        </mxCell>
        <mxCell id="WXJnhD6GPRWwHJao-meW-72" value="" style="endArrow=none;html=1;rounded=0;exitX=0.5;exitY=1;exitDx=0;exitDy=0;entryX=0.5;entryY=0;entryDx=0;entryDy=0;labelBorderColor=none;strokeColor=#9673A6;" parent="1" source="WXJnhD6GPRWwHJao-meW-77" target="WXJnhD6GPRWwHJao-meW-71" edge="1">
          <mxGeometry relative="1" as="geometry">
            <mxPoint x="270" y="462" as="sourcePoint" />
            <mxPoint x="430" y="462" as="targetPoint" />
          </mxGeometry>
        </mxCell>
        <mxCell id="WXJnhD6GPRWwHJao-meW-74" value="(0,N)" style="resizable=0;html=1;whiteSpace=wrap;align=right;verticalAlign=bottom;" parent="WXJnhD6GPRWwHJao-meW-72" connectable="0" vertex="1">
          <mxGeometry x="1" relative="1" as="geometry" />
        </mxCell>
        <mxCell id="WXJnhD6GPRWwHJao-meW-78" value="" style="endArrow=none;html=1;rounded=0;exitX=0.5;exitY=1;exitDx=0;exitDy=0;entryX=0.5;entryY=0;entryDx=0;entryDy=0;labelBorderColor=none;strokeColor=#9673A6;" parent="1" source="WXJnhD6GPRWwHJao-meW-1" target="WXJnhD6GPRWwHJao-meW-77" edge="1">
          <mxGeometry relative="1" as="geometry">
            <mxPoint x="260" y="424.9999999999998" as="sourcePoint" />
            <mxPoint x="260" y="607" as="targetPoint" />
          </mxGeometry>
        </mxCell>
        <mxCell id="WXJnhD6GPRWwHJao-meW-79" value="(1,N)" style="resizable=0;html=1;whiteSpace=wrap;align=left;verticalAlign=bottom;" parent="WXJnhD6GPRWwHJao-meW-78" connectable="0" vertex="1">
          <mxGeometry x="-1" relative="1" as="geometry">
            <mxPoint x="-31" y="20" as="offset" />
          </mxGeometry>
        </mxCell>
        <mxCell id="WXJnhD6GPRWwHJao-meW-77" value="compra" style="shape=rhombus;perimeter=rhombusPerimeter;whiteSpace=wrap;html=1;align=center;portConstraintRotation=0;metaEdit=0;fillColor=#fff2cc;strokeColor=#d6b656;" parent="1" vertex="1">
          <mxGeometry x="200" y="479.25" width="120" height="58" as="geometry" />
        </mxCell>
        <mxCell id="WXJnhD6GPRWwHJao-meW-81" value="dirección" style="ellipse;shape=doubleEllipse;margin=0;whiteSpace=wrap;html=1;align=center;fillColor=#EDE0F4;strokeColor=#9673A6;" parent="1" vertex="1">
          <mxGeometry x="640" y="444.25" width="100" height="38" as="geometry" />
        </mxCell>
        <mxCell id="WXJnhD6GPRWwHJao-meW-83" value="nombre" style="ellipse;whiteSpace=wrap;html=1;align=center;fillColor=#EDE0F4;strokeColor=#9673a6;" parent="1" vertex="1">
          <mxGeometry x="760" y="394.25" width="100" height="38" as="geometry" />
        </mxCell>
        <mxCell id="WXJnhD6GPRWwHJao-meW-84" value="numero" style="ellipse;whiteSpace=wrap;html=1;align=center;fillColor=#EDE0F4;strokeColor=#9673a6;" parent="1" vertex="1">
          <mxGeometry x="760" y="444.25" width="100" height="38" as="geometry" />
        </mxCell>
        <mxCell id="WXJnhD6GPRWwHJao-meW-85" value="cod_postal" style="ellipse;whiteSpace=wrap;html=1;align=center;fillColor=#EDE0F4;strokeColor=#9673a6;" parent="1" vertex="1">
          <mxGeometry x="760" y="494.25" width="100" height="38" as="geometry" />
        </mxCell>
        <mxCell id="WXJnhD6GPRWwHJao-meW-87" value="" style="endArrow=none;html=1;rounded=0;entryX=1;entryY=0.5;entryDx=0;entryDy=0;exitX=0;exitY=0.5;exitDx=0;exitDy=0;labelBorderColor=none;strokeColor=#9673A6;" parent="1" source="WXJnhD6GPRWwHJao-meW-83" target="WXJnhD6GPRWwHJao-meW-81" edge="1">
          <mxGeometry relative="1" as="geometry">
            <mxPoint x="750" y="469.25" as="sourcePoint" />
            <mxPoint x="690" y="599.25" as="targetPoint" />
          </mxGeometry>
        </mxCell>
        <mxCell id="WXJnhD6GPRWwHJao-meW-88" value="" style="endArrow=none;html=1;rounded=0;entryX=1;entryY=0.5;entryDx=0;entryDy=0;exitX=0;exitY=0.5;exitDx=0;exitDy=0;labelBorderColor=none;strokeColor=#9673A6;" parent="1" source="WXJnhD6GPRWwHJao-meW-84" target="WXJnhD6GPRWwHJao-meW-81" edge="1">
          <mxGeometry relative="1" as="geometry">
            <mxPoint x="820" y="454.25" as="sourcePoint" />
            <mxPoint x="760" y="584.25" as="targetPoint" />
          </mxGeometry>
        </mxCell>
        <mxCell id="WXJnhD6GPRWwHJao-meW-89" value="" style="endArrow=none;html=1;rounded=0;entryX=1;entryY=0.5;entryDx=0;entryDy=0;exitX=0;exitY=0.5;exitDx=0;exitDy=0;labelBorderColor=none;strokeColor=#9673A6;" parent="1" source="WXJnhD6GPRWwHJao-meW-85" target="WXJnhD6GPRWwHJao-meW-81" edge="1">
          <mxGeometry relative="1" as="geometry">
            <mxPoint x="830" y="454.25" as="sourcePoint" />
            <mxPoint x="770" y="584.25" as="targetPoint" />
          </mxGeometry>
        </mxCell>
        <mxCell id="WXJnhD6GPRWwHJao-meW-90" value="" style="endArrow=none;html=1;rounded=0;entryX=0;entryY=0.5;entryDx=0;entryDy=0;exitX=1;exitY=0.5;exitDx=0;exitDy=0;labelBorderColor=none;strokeColor=#9673A6;" parent="1" source="WXJnhD6GPRWwHJao-meW-20" target="WXJnhD6GPRWwHJao-meW-81" edge="1">
          <mxGeometry relative="1" as="geometry">
            <mxPoint x="630" y="340" as="sourcePoint" />
            <mxPoint x="710" y="360" as="targetPoint" />
          </mxGeometry>
        </mxCell>
        <mxCell id="WXJnhD6GPRWwHJao-meW-91" value="teléfono" style="ellipse;whiteSpace=wrap;html=1;align=center;fillColor=#EDE0F4;strokeColor=#9673a6;" parent="1" vertex="1">
          <mxGeometry x="640" y="344.25" width="100" height="38" as="geometry" />
        </mxCell>
        <mxCell id="WXJnhD6GPRWwHJao-meW-92" value="id" style="ellipse;whiteSpace=wrap;html=1;align=center;fillColor=#C8BDCD;strokeColor=#9673a6;" parent="1" vertex="1">
          <mxGeometry x="640" y="245.75" width="100" height="38" as="geometry" />
        </mxCell>
        <mxCell id="WXJnhD6GPRWwHJao-meW-93" value="nombre" style="ellipse;whiteSpace=wrap;html=1;align=center;fillColor=#EDE0F4;strokeColor=#9673a6;" parent="1" vertex="1">
          <mxGeometry x="640" y="295.75" width="100" height="38" as="geometry" />
        </mxCell>
        <mxCell id="WXJnhD6GPRWwHJao-meW-96" value="" style="endArrow=none;html=1;rounded=0;entryX=0;entryY=0.5;entryDx=0;entryDy=0;exitX=1;exitY=0.5;exitDx=0;exitDy=0;labelBorderColor=none;strokeColor=#9673A6;" parent="1" source="WXJnhD6GPRWwHJao-meW-20" target="WXJnhD6GPRWwHJao-meW-91" edge="1">
          <mxGeometry relative="1" as="geometry">
            <mxPoint x="630" y="480" as="sourcePoint" />
            <mxPoint x="680" y="390" as="targetPoint" />
          </mxGeometry>
        </mxCell>
        <mxCell id="WXJnhD6GPRWwHJao-meW-97" value="fax" style="ellipse;whiteSpace=wrap;html=1;align=center;fillColor=#EDE0F4;strokeColor=#9673a6;" parent="1" vertex="1">
          <mxGeometry x="640" y="394.25" width="100" height="38" as="geometry" />
        </mxCell>
        <mxCell id="WXJnhD6GPRWwHJao-meW-98" value="" style="endArrow=none;html=1;rounded=0;entryX=0;entryY=0.5;entryDx=0;entryDy=0;exitX=1;exitY=0.5;exitDx=0;exitDy=0;labelBorderColor=none;strokeColor=#9673A6;" parent="1" source="WXJnhD6GPRWwHJao-meW-20" target="WXJnhD6GPRWwHJao-meW-97" edge="1">
          <mxGeometry relative="1" as="geometry">
            <mxPoint x="830" y="510" as="sourcePoint" />
            <mxPoint x="910" y="510" as="targetPoint" />
          </mxGeometry>
        </mxCell>
        <mxCell id="WXJnhD6GPRWwHJao-meW-99" value="nombre_contacto" style="ellipse;whiteSpace=wrap;html=1;align=center;fillColor=#EDE0F4;strokeColor=#9673a6;" parent="1" vertex="1">
          <mxGeometry x="640" y="494.25" width="100" height="38" as="geometry" />
        </mxCell>
        <mxCell id="WXJnhD6GPRWwHJao-meW-100" value="" style="endArrow=none;html=1;rounded=0;entryX=0;entryY=0.5;entryDx=0;entryDy=0;exitX=1;exitY=0.5;exitDx=0;exitDy=0;labelBorderColor=none;strokeColor=#9673A6;" parent="1" source="WXJnhD6GPRWwHJao-meW-20" target="WXJnhD6GPRWwHJao-meW-99" edge="1">
          <mxGeometry relative="1" as="geometry">
            <mxPoint x="950" y="510" as="sourcePoint" />
            <mxPoint x="1030" y="510" as="targetPoint" />
          </mxGeometry>
        </mxCell>
        <mxCell id="exFLkjnAaO6eVQcW3pQ7-4" value="id" style="ellipse;whiteSpace=wrap;html=1;align=center;fillColor=#C8BDCD;strokeColor=#9673a6;" parent="1" vertex="1">
          <mxGeometry x="350" y="593.5" width="100" height="40" as="geometry" />
        </mxCell>
        <mxCell id="exFLkjnAaO6eVQcW3pQ7-6" value="con_credito" style="ellipse;whiteSpace=wrap;html=1;align=center;fillColor=#EDE0F4;strokeColor=#9673a6;" parent="1" vertex="1">
          <mxGeometry x="350" y="644" width="100" height="40" as="geometry" />
        </mxCell>
        <mxCell id="exFLkjnAaO6eVQcW3pQ7-7" value="" style="endArrow=none;html=1;rounded=0;exitX=1;exitY=0.5;exitDx=0;exitDy=0;entryX=0;entryY=0.5;entryDx=0;entryDy=0;labelBorderColor=none;strokeColor=#9673A6;" parent="1" source="WXJnhD6GPRWwHJao-meW-71" target="exFLkjnAaO6eVQcW3pQ7-4" edge="1">
          <mxGeometry relative="1" as="geometry">
            <mxPoint x="240" y="645" as="sourcePoint" />
            <mxPoint x="400" y="645" as="targetPoint" />
          </mxGeometry>
        </mxCell>
        <mxCell id="exFLkjnAaO6eVQcW3pQ7-8" value="" style="endArrow=none;html=1;rounded=0;exitX=1;exitY=0.5;exitDx=0;exitDy=0;entryX=0;entryY=0.5;entryDx=0;entryDy=0;labelBorderColor=none;strokeColor=#9673A6;" parent="1" source="WXJnhD6GPRWwHJao-meW-71" target="exFLkjnAaO6eVQcW3pQ7-10" edge="1">
          <mxGeometry relative="1" as="geometry">
            <mxPoint x="320" y="775" as="sourcePoint" />
            <mxPoint x="360" y="714" as="targetPoint" />
          </mxGeometry>
        </mxCell>
        <mxCell id="exFLkjnAaO6eVQcW3pQ7-9" value="" style="endArrow=none;html=1;rounded=0;exitX=1;exitY=0.5;exitDx=0;exitDy=0;entryX=0;entryY=0.5;entryDx=0;entryDy=0;labelBorderColor=none;strokeColor=#9673A6;" parent="1" source="WXJnhD6GPRWwHJao-meW-71" target="exFLkjnAaO6eVQcW3pQ7-6" edge="1">
          <mxGeometry relative="1" as="geometry">
            <mxPoint x="320" y="775" as="sourcePoint" />
            <mxPoint x="370" y="725" as="targetPoint" />
          </mxGeometry>
        </mxCell>
        <mxCell id="exFLkjnAaO6eVQcW3pQ7-10" value="num_IBAN" style="ellipse;shape=doubleEllipse;margin=0;whiteSpace=wrap;html=1;align=center;fillColor=#EDE0F4;strokeColor=#9673a6;" parent="1" vertex="1">
          <mxGeometry x="350" y="694.5" width="100" height="40" as="geometry" />
        </mxCell>
        <mxCell id="exFLkjnAaO6eVQcW3pQ7-11" value="" style="endArrow=none;html=1;rounded=0;entryX=0;entryY=0.5;entryDx=0;entryDy=0;exitX=1;exitY=0.5;exitDx=0;exitDy=0;labelBorderColor=none;strokeColor=#9673A6;" parent="1" source="WXJnhD6GPRWwHJao-meW-20" target="WXJnhD6GPRWwHJao-meW-93" edge="1">
          <mxGeometry relative="1" as="geometry">
            <mxPoint x="650" y="432" as="sourcePoint" />
            <mxPoint x="700" y="340" as="targetPoint" />
          </mxGeometry>
        </mxCell>
        <mxCell id="exFLkjnAaO6eVQcW3pQ7-12" value="" style="endArrow=none;html=1;rounded=0;entryX=0;entryY=0.5;entryDx=0;entryDy=0;exitX=1;exitY=0.5;exitDx=0;exitDy=0;labelBorderColor=none;strokeColor=#9673A6;" parent="1" source="WXJnhD6GPRWwHJao-meW-20" target="WXJnhD6GPRWwHJao-meW-92" edge="1">
          <mxGeometry relative="1" as="geometry">
            <mxPoint x="650" y="432" as="sourcePoint" />
            <mxPoint x="700" y="340" as="targetPoint" />
          </mxGeometry>
        </mxCell>
        <mxCell id="exFLkjnAaO6eVQcW3pQ7-15" value="cod_pais" style="ellipse;whiteSpace=wrap;html=1;align=center;fillColor=#EDE0F4;strokeColor=#9673a6;" parent="1" vertex="1">
          <mxGeometry x="485" y="647" width="100" height="40" as="geometry" />
        </mxCell>
        <mxCell id="exFLkjnAaO6eVQcW3pQ7-17" value="" style="endArrow=none;html=1;rounded=0;exitX=1;exitY=0.5;exitDx=0;exitDy=0;entryX=0;entryY=0.5;entryDx=0;entryDy=0;labelBorderColor=none;strokeColor=#9673A6;" parent="1" source="exFLkjnAaO6eVQcW3pQ7-10" target="exFLkjnAaO6eVQcW3pQ7-15" edge="1">
          <mxGeometry relative="1" as="geometry">
            <mxPoint x="480" y="690" as="sourcePoint" />
            <mxPoint x="540" y="751" as="targetPoint" />
          </mxGeometry>
        </mxCell>
        <mxCell id="exFLkjnAaO6eVQcW3pQ7-18" value="paridad" style="ellipse;whiteSpace=wrap;html=1;align=center;fillColor=#EDE0F4;strokeColor=#9673a6;" parent="1" vertex="1">
          <mxGeometry x="485" y="694" width="100" height="40" as="geometry" />
        </mxCell>
        <mxCell id="exFLkjnAaO6eVQcW3pQ7-19" value="cod_cuenta" style="ellipse;whiteSpace=wrap;html=1;align=center;fillColor=#EDE0F4;strokeColor=#9673a6;" parent="1" vertex="1">
          <mxGeometry x="485" y="742" width="100" height="40" as="geometry" />
        </mxCell>
        <mxCell id="exFLkjnAaO6eVQcW3pQ7-20" value="" style="endArrow=none;html=1;rounded=0;exitX=1;exitY=0.5;exitDx=0;exitDy=0;entryX=0;entryY=0.5;entryDx=0;entryDy=0;labelBorderColor=none;strokeColor=#9673A6;" parent="1" source="exFLkjnAaO6eVQcW3pQ7-10" target="exFLkjnAaO6eVQcW3pQ7-18" edge="1">
          <mxGeometry relative="1" as="geometry">
            <mxPoint x="460" y="875" as="sourcePoint" />
            <mxPoint x="550" y="856" as="targetPoint" />
          </mxGeometry>
        </mxCell>
        <mxCell id="exFLkjnAaO6eVQcW3pQ7-21" value="" style="endArrow=none;html=1;rounded=0;exitX=1;exitY=0.5;exitDx=0;exitDy=0;entryX=0;entryY=0.5;entryDx=0;entryDy=0;labelBorderColor=none;strokeColor=#9673A6;" parent="1" source="exFLkjnAaO6eVQcW3pQ7-10" target="exFLkjnAaO6eVQcW3pQ7-19" edge="1">
          <mxGeometry relative="1" as="geometry">
            <mxPoint x="460" y="875" as="sourcePoint" />
            <mxPoint x="520" y="936" as="targetPoint" />
          </mxGeometry>
        </mxCell>
        <mxCell id="exFLkjnAaO6eVQcW3pQ7-22" value="unidades" style="ellipse;whiteSpace=wrap;html=1;align=center;fillColor=#EDE0F4;strokeColor=#9673a6;" parent="1" vertex="1">
          <mxGeometry x="350" y="441.25" width="100" height="40" as="geometry" />
        </mxCell>
        <mxCell id="exFLkjnAaO6eVQcW3pQ7-23" value="" style="endArrow=none;html=1;rounded=0;exitX=1;exitY=0.5;exitDx=0;exitDy=0;entryX=0;entryY=0.5;entryDx=0;entryDy=0;labelBorderColor=none;strokeColor=#9673A6;" parent="1" source="WXJnhD6GPRWwHJao-meW-77" target="exFLkjnAaO6eVQcW3pQ7-22" edge="1">
          <mxGeometry relative="1" as="geometry">
            <mxPoint x="320" y="447" as="sourcePoint" />
            <mxPoint x="380" y="508" as="targetPoint" />
          </mxGeometry>
        </mxCell>
        <mxCell id="exFLkjnAaO6eVQcW3pQ7-24" value="fecha_compra" style="ellipse;whiteSpace=wrap;html=1;align=center;fillColor=#EDE0F4;strokeColor=#9673a6;" parent="1" vertex="1">
          <mxGeometry x="350" y="488.25" width="100" height="40" as="geometry" />
        </mxCell>
        <mxCell id="exFLkjnAaO6eVQcW3pQ7-25" value="" style="endArrow=none;html=1;rounded=0;exitX=1;exitY=0.5;exitDx=0;exitDy=0;entryX=0;entryY=0.5;entryDx=0;entryDy=0;labelBorderColor=none;strokeColor=#9673A6;" parent="1" source="WXJnhD6GPRWwHJao-meW-77" target="exFLkjnAaO6eVQcW3pQ7-24" edge="1">
          <mxGeometry relative="1" as="geometry">
            <mxPoint x="400" y="514" as="sourcePoint" />
            <mxPoint x="460" y="575" as="targetPoint" />
          </mxGeometry>
        </mxCell>
        <mxCell id="exFLkjnAaO6eVQcW3pQ7-26" value="fecha_pago" style="ellipse;whiteSpace=wrap;html=1;align=center;fillColor=#EDE0F4;strokeColor=#9673a6;" parent="1" vertex="1">
          <mxGeometry x="350" y="535.25" width="100" height="40" as="geometry" />
        </mxCell>
        <mxCell id="exFLkjnAaO6eVQcW3pQ7-27" value="" style="endArrow=none;html=1;rounded=0;exitX=1;exitY=0.5;exitDx=0;exitDy=0;entryX=0;entryY=0.5;entryDx=0;entryDy=0;labelBorderColor=none;strokeColor=#9673A6;" parent="1" source="WXJnhD6GPRWwHJao-meW-77" target="exFLkjnAaO6eVQcW3pQ7-26" edge="1">
          <mxGeometry relative="1" as="geometry">
            <mxPoint x="360" y="562" as="sourcePoint" />
            <mxPoint x="400" y="552" as="targetPoint" />
          </mxGeometry>
        </mxCell>
        <mxCell id="exFLkjnAaO6eVQcW3pQ7-28" value="1:N" style="resizable=0;html=1;whiteSpace=wrap;align=right;verticalAlign=bottom;" parent="1" connectable="0" vertex="1">
          <mxGeometry x="320" y="264" as="geometry" />
        </mxCell>
        <mxCell id="exFLkjnAaO6eVQcW3pQ7-29" value="1:N" style="resizable=0;html=1;whiteSpace=wrap;align=right;verticalAlign=bottom;" parent="1" connectable="0" vertex="1">
          <mxGeometry x="450" y="370" as="geometry" />
        </mxCell>
        <mxCell id="exFLkjnAaO6eVQcW3pQ7-30" value="N:M" style="resizable=0;html=1;whiteSpace=wrap;align=right;verticalAlign=bottom;labelBorderColor=none;" parent="1" connectable="0" vertex="1">
          <mxGeometry x="300" y="490" as="geometry" />
        </mxCell>
      </root>
    </mxGraphModel>
  </diagram>
</mxfile>
